<?xml version="1.0" encoding="UTF-8"?>
<svg width="16px" height="16px" viewBox="0 0 16 16" version="1.1" xmlns="http://www.w3.org/2000/svg" xmlns:xlink="http://www.w3.org/1999/xlink">
    <title>icon magnify</title>
    <g id="Desktop" stroke="none" stroke-width="1" fill="none" fill-rule="evenodd">
        <g id="guideline" transform="translate(-969.000000, -197.000000)" fill="#FFFFFF">
            <g id="Icons" transform="translate(440.000000, 166.000000)">
                <g id="icon_magnify_white" transform="translate(522.000000, 24.000000)">
                    <path d="M9.03729524,13.1118857 C9.03729524,10.8615505 10.8615505,9.03729524 13.1118857,9.03729524 C15.3622311,9.03729524 17.1864762,10.8615505 17.1864762,13.1118857 C17.1864762,15.3622311 15.3622311,17.1864762 13.1118857,17.1864762 C10.8615505,17.1864762 9.03729524,15.3622311 9.03729524,13.1118857 Z M13.1118857,7 C9.73638291,7 7,9.73638291 7,13.1118857 C7,16.4873783 9.73638291,19.2237714 13.1118857,19.2237714 C14.4319002,19.2237714 15.6541246,18.805311 16.6532651,18.0938365 L21.5594285,23 L23,21.5594285 L18.0938365,16.6532651 C18.805311,15.6541246 19.2237714,14.4319002 19.2237714,13.1118857 C19.2237714,9.73638291 16.4873783,7 13.1118857,7 Z" id="icon-magnify"></path>
                </g>
            </g>
        </g>
    </g>
</svg>